<?xml version="1.0" encoding="UTF-8" standalone="no"?>
<!-- Created with Inkscape (http://www.inkscape.org/) -->

<svg
   xmlns:dc="http://purl.org/dc/elements/1.1/"
   xmlns:cc="http://creativecommons.org/ns#"
   xmlns:rdf="http://www.w3.org/1999/02/22-rdf-syntax-ns#"
   xmlns:svg="http://www.w3.org/2000/svg"
   xmlns="http://www.w3.org/2000/svg"
   xmlns:sodipodi="http://sodipodi.sourceforge.net/DTD/sodipodi-0.dtd"
   xmlns:inkscape="http://www.inkscape.org/namespaces/inkscape"
   width="600mm"
   height="300mm"
   viewBox="0 0 2125.9843 1062.9921"
   id="svg2"
   version="1.1"
   inkscape:version="0.91 r"
   sodipodi:docname="outter_box2.svg">
  <defs
     id="defs4" />
  <sodipodi:namedview
     id="base"
     pagecolor="#ffffff"
     bordercolor="#666666"
     borderopacity="1.0"
     inkscape:pageopacity="0.0"
     inkscape:pageshadow="2"
     inkscape:zoom="0.35"
     inkscape:cx="1121.3766"
     inkscape:cy="535.91843"
     inkscape:document-units="px"
     inkscape:current-layer="layer1"
     showgrid="false"
     inkscape:window-width="1631"
     inkscape:window-height="1026"
     inkscape:window-x="49"
     inkscape:window-y="24"
     inkscape:window-maximized="1" />
  <metadata
     id="metadata7">
    <rdf:RDF>
      <cc:Work
         rdf:about="">
        <dc:format>image/svg+xml</dc:format>
        <dc:type
           rdf:resource="http://purl.org/dc/dcmitype/StillImage" />
        <dc:title></dc:title>
      </cc:Work>
    </rdf:RDF>
  </metadata>
  <g
     inkscape:label="Layer 1"
     inkscape:groupmode="layer"
     id="layer1"
     transform="translate(0,10.629923)">
    <flowRoot
       xml:space="preserve"
       id="flowRoot4328"
       style="font-style:normal;font-weight:normal;font-size:15px;line-height:125%;font-family:Sans;letter-spacing:0px;word-spacing:0px;fill:#00ff00;fill-opacity:1;stroke:#00ff00;stroke-width:1px;stroke-linecap:butt;stroke-linejoin:miter;stroke-opacity:1;"
       transform="matrix(1.2002592,1.0495572e-8,-1.0495572e-8,1.2002592,-536.52177,-53.313527)"><flowRegion
         id="flowRegion4330"><rect
           id="rect4332"
           width="924.56641"
           height="121.99931"
           x="1479.3063"
           y="833.89594"
           style="font-size:15px;fill:#00ff00;fill-opacity:1;stroke:#00ff00;stroke-opacity:1;" /></flowRegion><flowPara
         id="flowPara4334">ECT CORRUGATECARDBOARD BOX</flowPara><flowPara
         id="flowPara4340"
         style="font-weight:bold;fill:#00ff00;fill-opacity:1;stroke:#00ff00;stroke-opacity:1;" /></flowRoot>    <path
       style="fill:none;fill-rule:evenodd;stroke:#00ff00;stroke-width:2.050807;stroke-linecap:butt;stroke-linejoin:miter;stroke-miterlimit:4;stroke-dasharray:none;stroke-opacity:1;fill-opacity:1"
       d="m 1580.9076,998.83026 c 6.3497,2e-5 4.6203,-14.84099 10.9354,-15.08699 5.2911,-0.20631 4.8626,15.087 11.0236,14.9128 6.3497,10e-6 4.6203,-14.8412 10.9354,-15.08718 5.291,-0.20642 4.8625,15.08719 11.0236,14.91299 6.3496,-1e-5 4.6203,-14.84131 10.9353,-15.08712 5.2911,-0.20649 4.8626,15.08712 11.0236,14.91271 6.3496,-10e-6 4.6203,-14.8411 10.9353,-15.08699 5.291,-0.2065 4.8627,15.08699 11.0237,14.91271 6.3496,-2e-5 4.6203,-14.84111 10.9353,-15.08713 5.291,-0.20648 4.8626,15.08712 11.0237,14.91302 6.3496,0 4.6203,-14.84139 10.9353,-15.08742 5.291,-0.20627 4.8626,15.08742 11.0237,14.91302 6.3496,-2e-5 4.6203,-14.84131 10.9353,-15.08721 5.291,-0.2063 4.8626,15.08721 11.0237,14.9129 6.3495,-10e-6 4.6202,-14.8414 10.9353,-15.08709 5.2909,-0.20652 4.8626,15.08709 11.0237,14.91259 6.3495,-10e-6 4.6202,-14.841 10.9353,-15.087 5.291,-0.20639 4.8626,15.087 11.0236,14.9127 6.3497,10e-6 4.6203,-14.8411 10.9353,-15.0871 5.2911,-0.20648 4.8627,15.08711 11.0237,14.9129 6.3496,-10e-6 4.6203,-14.8413 10.9353,-15.08721 5.291,-0.20649 4.8626,15.0872 11.0237,14.91281 6.3495,-10e-6 4.6203,-14.841 10.9353,-15.087 5.291,-0.2064 4.8626,15.08699 11.0237,14.91281 6.3496,-10e-6 4.6202,-14.84112 10.9353,-15.087 5.291,-0.20651 4.8626,15.087 11.0237,14.9126 6.3495,-2e-5 4.6202,-14.84112 10.9352,-15.08721 5.291,-0.2063 4.8627,15.0872 11.0237,14.91299 6.3497,10e-6 4.6203,-14.84119 10.9353,-15.0871 5.2911,-0.20627 4.8627,15.08711 11.0237,14.9128 6.3496,10e-6 4.6202,-14.84139 10.9354,-15.08709 5.291,-0.20629 4.8626,15.0871 11.0235,14.91259 6.3496,0 4.6203,-14.84089 10.9355,-15.08698 5.2909,-0.2063 4.8626,15.08699 11.0236,14.9127 6.3496,-10e-6 4.6202,-14.84102 10.9353,-15.08692 5.2911,-0.20628 4.8626,15.0869 11.0237,14.91252"
       id="path4350"
       inkscape:connector-curvature="0"
       sodipodi:nodetypes="cscscscscscscscscscscscscscscscscscsc" />
    <path
       style="fill:#00ff00;fill-rule:evenodd;stroke:#00ff00;stroke-width:1.68741477px;stroke-linecap:butt;stroke-linejoin:miter;stroke-opacity:1;fill-opacity:1"
       d="m 1591.843,983.74327 373.3026,-2.96311"
       id="path4499"
       inkscape:connector-curvature="0" />
    <path
       style="fill:#00ff00;fill-rule:evenodd;stroke:#00ff00;stroke-width:1.68741477px;stroke-linecap:butt;stroke-linejoin:miter;stroke-opacity:1;fill-opacity:1"
       d="m 1580.9076,998.83026 395.2617,-3.13758"
       id="path4501"
       inkscape:connector-curvature="0" />
    <text
       xml:space="preserve"
       style="font-style:normal;font-weight:normal;font-size:15.00323868px;line-height:125%;font-family:Sans;letter-spacing:0px;word-spacing:0px;fill:#00ff00;fill-opacity:1;stroke:#00ff00;stroke-width:1px;stroke-linecap:butt;stroke-linejoin:miter;stroke-opacity:1;"
       x="2001.1326"
       y="993.53583"
       id="text4503"
       sodipodi:linespacing="125%"><tspan
         sodipodi:role="line"
         id="tspan4505"
         x="2001.1326"
         y="993.53583">4mm thickness</tspan></text>
    <path
       style="fill:#00ff00;fill-rule:evenodd;stroke:#00ff00;stroke-width:1.10867238px;stroke-linecap:butt;stroke-linejoin:miter;stroke-opacity:1;fill-opacity:1"
       d="m 1979.8804,980.51198 16.1451,-2e-5"
       id="path4507"
       inkscape:connector-curvature="0" />
    <path
       style="fill:#00ff00;fill-rule:evenodd;stroke:#00ff00;stroke-width:1.05969799px;stroke-linecap:butt;stroke-linejoin:miter;stroke-opacity:1;fill-opacity:1"
       d="m 1980.5093,995.69268 15.3426,-10e-6"
       id="path4509"
       inkscape:connector-curvature="0" />
    <path
       style="fill:#00ff00;fill-rule:evenodd;stroke:#00ff00;stroke-width:1.20025909px;stroke-linecap:butt;stroke-linejoin:miter;stroke-opacity:1;fill-opacity:1"
       d="m 1986.5641,980.51198 0,14.93"
       id="path4511"
       inkscape:connector-curvature="0" />
    <text
       xml:space="preserve"
       style="font-style:normal;font-weight:normal;font-size:16.50356293px;line-height:125%;font-family:Sans;letter-spacing:0px;word-spacing:0px;fill:#00ff00;fill-opacity:1;stroke:#00ff00;stroke-width:1px;stroke-linecap:butt;stroke-linejoin:miter;stroke-opacity:1;"
       x="1239.9255"
       y="991.72491"
       id="text4518"
       sodipodi:linespacing="125%"><tspan
         sodipodi:role="line"
         id="tspan4520"
         x="1239.9255"
         y="991.72491">European store:</tspan><tspan
         sodipodi:role="line"
         x="1239.9255"
         y="1012.3544"
         id="tspan4522"
         style="font-weight:bold;fill:#00ff00;fill-opacity:1;stroke:#00ff00;stroke-opacity:1;">LEROY MERLIN</tspan><tspan
         sodipodi:role="line"
         x="1239.9255"
         y="1032.9838"
         id="tspan4524"
         style="font-weight:bold;fill:#00ff00;fill-opacity:1;stroke:#00ff00;stroke-opacity:1;">P/N:LM-PLUSL</tspan></text>
    <text
       xml:space="preserve"
       style="font-style:normal;font-weight:normal;font-size:16.25px;line-height:125%;font-family:Sans;letter-spacing:0px;word-spacing:0px;fill:#00ff00;fill-opacity:1;stroke:#00ff00;stroke-width:1px;stroke-linecap:butt;stroke-linejoin:miter;stroke-opacity:1;"
       x="1637.4329"
       y="1026.969"
       id="text4588"
       sodipodi:linespacing="125%"><tspan
         sodipodi:role="line"
         id="tspan4590"
         x="1637.4329"
         y="1026.969">preferable corrugation orientation</tspan></text>
    <path
       id="path27312"
       d="m 1333.6039,288.0542 0,-254.1265"
       style="fill:none;stroke:#ff0000;stroke-width:7.79527569;stroke-miterlimit:4;stroke-dasharray:none"
       inkscape:connector-curvature="0"
       sodipodi:nodetypes="cc" />
    <path
       id="path27310"
       d="m 832.59656,288.0542 0,-254.1265"
       style="fill:none;stroke:#ff0000;stroke-width:7.79527569;stroke-miterlimit:4;stroke-dasharray:none"
       inkscape:connector-curvature="0"
       sodipodi:nodetypes="cc" />
    <path
       inkscape:connector-curvature="0"
       id="path27304"
       d="m 1347.9846,882.7966 0,-594.7424 -529.76864,0 0,594.7424"
       style="fill:none;stroke:#ff0000;stroke-width:7.79527569;stroke-miterlimit:4;stroke-dasharray:none" />
    <path
       inkscape:connector-curvature="0"
       id="path21516"
       d="m 1610.1893,882.7966 0,-594.7424"
       style="fill:none;stroke:#ff0000;stroke-width:7.79527569;stroke-miterlimit:4;stroke-dasharray:none" />
    <path
       inkscape:connector-curvature="0"
       id="path21522"
       d="m 556.01133,882.7966 0,-594.7424"
       style="fill:none;stroke:#ff0000;stroke-width:7.79527569;stroke-miterlimit:4;stroke-dasharray:none" />
    <path
       inkscape:connector-curvature="0"
       id="path21536"
       d="m 1638.9509,882.7966 -2e-4,-355.6637"
       style="fill:none;stroke:#ff0000;stroke-width:7.79527569;stroke-miterlimit:4;stroke-dasharray:none" />
    <path
       inkscape:connector-curvature="0"
       id="path21540"
       d="m 265.0453,882.7966 -5e-5,-355.6637"
       style="fill:none;stroke:#ff0000;stroke-width:7.79527569;stroke-miterlimit:4;stroke-dasharray:none" />
    <path
       inkscape:connector-curvature="0"
       id="path21546"
       d="m 1901.1552,882.7966 0,-355.6637"
       style="fill:none;stroke:#ff0000;stroke-width:7.79527569;stroke-miterlimit:4;stroke-dasharray:none" />
    <path
       id="path27236"
       d="m 2149.2803,288.0542 -815.6764,0"
       style="fill:none;stroke:#0000ff;stroke-width:7.69478416;stroke-miterlimit:4;stroke-dasharray:none"
       inkscape:connector-curvature="0"
       sodipodi:nodetypes="cc" />
    <path
       id="path27238"
       d="m 2149.2803,33.9277 -819.0122,0 -494.33563,0 -848.06947,0"
       style="fill:none;stroke:#0000ff;stroke-width:7.79527569;stroke-miterlimit:4;stroke-dasharray:none"
       inkscape:connector-curvature="0"
       sodipodi:nodetypes="cccc" />
    <path
       id="path27240"
       d="m -12.137,288.0542 844.73356,0"
       style="fill:none;stroke:#0000ff;stroke-width:7.86248779;stroke-miterlimit:4;stroke-dasharray:none"
       inkscape:connector-curvature="0"
       sodipodi:nodetypes="cc" />
    <path
       id="path27272"
       d="m 1811.7613,288.0542 14.3807,0"
       style="fill:none;stroke:#0000ff;stroke-width:7.79527569;stroke-miterlimit:4;stroke-dasharray:none"
       inkscape:connector-curvature="0"
       sodipodi:nodetypes="cc" />
    <path
       id="path27274"
       d="m 354.43916,288.0542 -14.3806,0"
       style="fill:none;stroke:#0000ff;stroke-width:7.79527569;stroke-miterlimit:4;stroke-dasharray:none"
       inkscape:connector-curvature="0"
       sodipodi:nodetypes="cc" />
    <path
       id="path27314"
       d="m 250.66465,302.4349 0,195.9367"
       style="fill:none;stroke:#ff0000;stroke-width:7.79527569;stroke-miterlimit:4;stroke-dasharray:none"
       inkscape:connector-curvature="0"
       sodipodi:nodetypes="cc" />
    <path
       inkscape:connector-curvature="0"
       id="path6613"
       d="m 250.66465,527.1329 0,355.6637"
       style="fill:none;stroke:#ff0000;stroke-width:7.79527569;stroke-miterlimit:4;stroke-dasharray:none" />
    <path
       id="path27320"
       d="m 265.04525,498.3716 0,-195.9367"
       style="fill:none;stroke:#ff0000;stroke-width:7.79527569;stroke-miterlimit:4;stroke-dasharray:none"
       inkscape:connector-curvature="0"
       sodipodi:nodetypes="cc" />
    <path
       inkscape:connector-curvature="0"
       id="path6581"
       d="m 527.25003,527.1329 0,355.6637"
       style="fill:none;stroke:#ff0000;stroke-width:7.79527569;stroke-miterlimit:4;stroke-dasharray:none" />
    <path
       id="path27324"
       d="m 527.25003,498.3716 0,-195.9367"
       style="fill:none;stroke:#ff0000;stroke-width:7.79527569;stroke-miterlimit:4;stroke-dasharray:none"
       inkscape:connector-curvature="0"
       sodipodi:nodetypes="cc" />
    <path
       inkscape:connector-curvature="0"
       id="path6609"
       d="m 1915.5359,527.1329 0,355.6637"
       style="fill:none;stroke:#ff0000;stroke-width:7.79527569;stroke-miterlimit:4;stroke-dasharray:none" />
    <path
       id="path27330"
       d="m 1901.1552,498.3716 0,-195.9367"
       style="fill:none;stroke:#ff0000;stroke-width:7.79527569;stroke-miterlimit:4;stroke-dasharray:none"
       inkscape:connector-curvature="0"
       sodipodi:nodetypes="cc" />
    <path
       id="path27332"
       d="m 1915.5359,302.4349 0,195.9367"
       style="fill:none;stroke:#ff0000;stroke-width:7.79527569;stroke-miterlimit:4;stroke-dasharray:none"
       inkscape:connector-curvature="0"
       sodipodi:nodetypes="cc" />
    <path
       id="path27336"
       d="m 1638.9507,498.3716 0,-195.9367"
       style="fill:none;stroke:#ff0000;stroke-width:7.79527569;stroke-miterlimit:4;stroke-dasharray:none"
       inkscape:connector-curvature="0"
       sodipodi:nodetypes="cc" />
    <path
       sodipodi:nodetypes="ccccccccccccccccccccccccccccccccccccccccccccccccccscsscsccccccccccccccccccccccccccccccccccccccccccccccccc"
       inkscape:connector-curvature="0"
       id="path5325"
       d="m 527.24972,288.3142 0,14.1211 -376.35156,0 0,195.9355 376.35156,0 0,28.7617 -451.84962,0 0,345.1368 0,10.5273 37.36524,0 -13.92773,-29.3457 54.28516,0 -10.35743,29.3457 65.50196,0 -13.92774,-29.3457 54.28516,0 -10.35742,29.3457 65.50195,0 -13.92773,-29.3457 54.28515,0 -10.35742,29.3457 65.50195,0 -13.92773,-29.3457 54.28515,0 -10.35742,29.3457 65.50196,0 -13.92774,-29.3457 54.28516,0 -10.35742,29.3457 65.50195,0 -13.92773,-29.3457 54.28515,0 -10.35742,29.3457 65.50195,0 -13.92773,-29.3457 54.28515,0 -10.35742,29.3457 65.50196,0 -13.92774,-29.3457 54.28516,0 -10.35742,29.3457 65.50195,0 -13.92774,-29.3457 54.28516,0 -10.35742,29.3457 65.50195,0 -13.92773,-29.3457 54.28511,0 -10.3574,29.3457 58.3477,0 0,-313.8691 c 0,-2.9413 1.2112,-5.8656 3.291,-7.9454 2.0798,-2.0796 5.0021,-3.291 7.9434,-3.291 l 22.4707,0 c 2.9413,0 5.8635,1.2114 7.9433,3.291 2.0798,2.0798 3.291,5.0041 3.291,7.9454 l 0,313.8691 57.7168,0 -13.9277,-29.3457 54.2851,0 -10.3574,29.3457 65.502,0 -13.9278,-29.3457 54.2852,0 -10.3574,29.3457 65.5019,0 -13.9277,-29.3457 54.2852,0 -10.3575,29.3457 65.502,0 -13.9277,-29.3457 54.2851,0 -10.3574,29.3457 65.5019,0 -13.9277,-29.3457 54.2852,0 -10.3575,29.3457 65.502,0 -13.9277,-29.3457 54.2851,0 -10.3574,29.3457 65.5019,0 -13.9277,-29.3457 54.2852,0 -10.3575,29.3457 65.502,0 -13.9277,-29.3457 54.2851,0 -10.3574,29.3457 65.502,0 -13.9278,-29.3457 54.2852,0 -10.3574,29.3457 65.5019,0 -13.9277,-29.3457 54.2851,0 -10.3574,29.3457 37.9961,0 0,-355.6641 -451.8496,0 0,-28.7617 376.3516,0 0,-195.9355 -376.3516,0 0,-14.2461"
       style="fill:none;stroke:#0000ff;stroke-width:7.79527569;stroke-miterlimit:4;stroke-dasharray:none" />
    <text
       xml:space="preserve"
       style="font-style:normal;font-weight:normal;font-size:40px;line-height:125%;font-family:Sans;letter-spacing:0px;word-spacing:0px;fill:#00ff00;fill-opacity:1;stroke:none;stroke-width:1px;stroke-linecap:butt;stroke-linejoin:miter;stroke-opacity:1"
       x="-716.91266"
       y="403.82919"
       id="text4176"
       sodipodi:linespacing="125%"
       transform="matrix(0,-1,1,0,0,0)"><tspan
         sodipodi:role="line"
         id="tspan4178"
         x="-716.91266"
         y="403.82919">glue</tspan></text>
    <text
       xml:space="preserve"
       style="font-style:normal;font-weight:normal;font-size:40px;line-height:125%;font-family:Sans;letter-spacing:0px;word-spacing:0px;fill:#00ff00;fill-opacity:1;stroke:none;stroke-width:1px;stroke-linecap:butt;stroke-linejoin:miter;stroke-opacity:1"
       x="-715.82611"
       y="172.65959"
       id="text4176-6"
       sodipodi:linespacing="125%"
       transform="matrix(0,-1,1,0,0,0)"><tspan
         sodipodi:role="line"
         id="tspan4178-1"
         x="-715.82611"
         y="172.65959">glue</tspan></text>
    <text
       xml:space="preserve"
       style="font-style:normal;font-weight:normal;font-size:40px;line-height:125%;font-family:Sans;letter-spacing:0px;word-spacing:0px;fill:#00ff00;fill-opacity:1;stroke:none;stroke-width:1px;stroke-linecap:butt;stroke-linejoin:miter;stroke-opacity:1"
       x="-443.08487"
       y="402.97437"
       id="text4176-7"
       sodipodi:linespacing="125%"
       transform="matrix(0,-1,1,0,0,0)"><tspan
         sodipodi:role="line"
         id="tspan4178-3"
         x="-443.08487"
         y="402.97437">glue</tspan></text>
    <text
       xml:space="preserve"
       style="font-style:normal;font-weight:normal;font-size:40px;line-height:125%;font-family:Sans;letter-spacing:0px;word-spacing:0px;fill:#00ff00;fill-opacity:1;stroke:none;stroke-width:1px;stroke-linecap:butt;stroke-linejoin:miter;stroke-opacity:1"
       x="-430.96307"
       y="204.98447"
       id="text4176-7-7"
       sodipodi:linespacing="125%"
       transform="matrix(0,-1,1,0,0,0)"><tspan
         sodipodi:role="line"
         id="tspan4178-3-6"
         x="-430.96307"
         y="204.98447">glue</tspan></text>
    <text
       xml:space="preserve"
       style="font-style:normal;font-weight:normal;font-size:40px;line-height:125%;font-family:Sans;letter-spacing:0px;word-spacing:0px;fill:#00ff00;fill-opacity:1;stroke:none;stroke-width:1px;stroke-linecap:butt;stroke-linejoin:miter;stroke-opacity:1"
       x="1031.5212"
       y="172.44276"
       id="text4176-7-3"
       sodipodi:linespacing="125%"><tspan
         sodipodi:role="line"
         id="tspan4178-3-3"
         x="1031.5212"
         y="172.44276">glue</tspan></text>
    <text
       xml:space="preserve"
       style="font-style:normal;font-weight:normal;font-size:40px;line-height:125%;font-family:Sans;letter-spacing:0px;word-spacing:0px;fill:#00ff00;fill-opacity:1;stroke:none;stroke-width:1px;stroke-linecap:butt;stroke-linejoin:miter;stroke-opacity:1"
       x="641.38544"
       y="-1760.7726"
       id="text4176-7-3-4"
       sodipodi:linespacing="125%"
       transform="matrix(0,1,-1,0,0,0)"
       inkscape:transform-center-x="-8.0812205"
       inkscape:transform-center-y="-121.21831"><tspan
         sodipodi:role="line"
         id="tspan4178-3-3-3"
         x="641.38544"
         y="-1760.7726">glue</tspan></text>
    <text
       xml:space="preserve"
       style="font-style:normal;font-weight:normal;font-size:40px;line-height:125%;font-family:Sans;letter-spacing:0px;word-spacing:0px;fill:#00ff00;fill-opacity:1;stroke:none;stroke-width:1px;stroke-linecap:butt;stroke-linejoin:miter;stroke-opacity:1"
       x="637.34485"
       y="-1987.0469"
       id="text4176-7-3-4-4"
       sodipodi:linespacing="125%"
       transform="matrix(0,1,-1,0,0,0)"
       inkscape:transform-center-x="-8.0812205"
       inkscape:transform-center-y="-121.21831"><tspan
         sodipodi:role="line"
         id="tspan4178-3-3-3-4"
         x="637.34485"
         y="-1987.0469">glue</tspan></text>
    <text
       xml:space="preserve"
       style="font-style:normal;font-weight:normal;font-size:40px;line-height:125%;font-family:Sans;letter-spacing:0px;word-spacing:0px;fill:#00ff00;fill-opacity:1;stroke:none;stroke-width:1px;stroke-linecap:butt;stroke-linejoin:miter;stroke-opacity:1"
       x="356.52237"
       y="-1948.661"
       id="text4176-7-3-4-4-9"
       sodipodi:linespacing="125%"
       transform="matrix(0,1,-1,0,0,0)"
       inkscape:transform-center-x="-8.0812205"
       inkscape:transform-center-y="-121.21831"><tspan
         sodipodi:role="line"
         id="tspan4178-3-3-3-4-8"
         x="356.52237"
         y="-1948.661">glue</tspan></text>
    <text
       xml:space="preserve"
       style="font-style:normal;font-weight:normal;font-size:40px;line-height:125%;font-family:Sans;letter-spacing:0px;word-spacing:0px;fill:#00ff00;fill-opacity:1;stroke:none;stroke-width:1px;stroke-linecap:butt;stroke-linejoin:miter;stroke-opacity:1"
       x="334.29904"
       y="-1770.8741"
       id="text4176-7-3-9"
       sodipodi:linespacing="125%"
       transform="matrix(0,1,-1,0,0,0)"><tspan
         sodipodi:role="line"
         id="tspan4178-3-3-7"
         x="334.29904"
         y="-1770.8741">glue</tspan></text>
  </g>
</svg>
