<?xml version="1.0" encoding="UTF-8" standalone="no"?>
<!-- Created with Inkscape (http://www.inkscape.org/) -->

<svg
   xmlns:dc="http://purl.org/dc/elements/1.1/"
   xmlns:cc="http://creativecommons.org/ns#"
   xmlns:rdf="http://www.w3.org/1999/02/22-rdf-syntax-ns#"
   xmlns:svg="http://www.w3.org/2000/svg"
   xmlns="http://www.w3.org/2000/svg"
   xmlns:sodipodi="http://sodipodi.sourceforge.net/DTD/sodipodi-0.dtd"
   xmlns:inkscape="http://www.inkscape.org/namespaces/inkscape"
   width="600mm"
   height="300mm"
   viewBox="0 0 2125.9843 1062.9921"
   id="svg2"
   version="1.1"
   inkscape:version="0.91 r"
   sodipodi:docname="outter_box1.svg">
  <defs
     id="defs4" />
  <sodipodi:namedview
     id="base"
     pagecolor="#ffffff"
     bordercolor="#666666"
     borderopacity="1.0"
     inkscape:pageopacity="0.0"
     inkscape:pageshadow="2"
     inkscape:zoom="0.35"
     inkscape:cx="1066.8485"
     inkscape:cy="729.06081"
     inkscape:document-units="px"
     inkscape:current-layer="layer1"
     showgrid="false"
     inkscape:window-width="1631"
     inkscape:window-height="1026"
     inkscape:window-x="49"
     inkscape:window-y="24"
     inkscape:window-maximized="1" />
  <metadata
     id="metadata7">
    <rdf:RDF>
      <cc:Work
         rdf:about="">
        <dc:format>image/svg+xml</dc:format>
        <dc:type
           rdf:resource="http://purl.org/dc/dcmitype/StillImage" />
        <dc:title></dc:title>
      </cc:Work>
    </rdf:RDF>
  </metadata>
  <g
     inkscape:label="Layer 1"
     inkscape:groupmode="layer"
     id="layer1"
     transform="translate(0,10.629923)">
    <g
       transform="matrix(0,1,-1,0,1044.1037,-387.73851)"
       id="g8003">
      <path
         sodipodi:nodetypes="cc"
         inkscape:connector-curvature="0"
         style="fill:none;stroke:#ff0000;stroke-width:7.79527569;stroke-miterlimit:4;stroke-dasharray:none"
         d="m 700.4943,-569.66807 195.37719,0"
         id="path21530" />
      <path
         sodipodi:nodetypes="cc"
         inkscape:connector-curvature="0"
         style="fill:none;stroke:#ff0000;stroke-width:7.79527569;stroke-miterlimit:4;stroke-dasharray:none"
         d="m 895.87149,-846.25345 -195.93669,0"
         id="path21542" />
      <path
         sodipodi:nodetypes="cc"
         inkscape:connector-curvature="0"
         style="fill:none;stroke:#ff0000;stroke-width:7.79527569;stroke-miterlimit:4;stroke-dasharray:none"
         d="m 699.9348,-831.87275 195.93669,0"
         id="path21544" />
      <path
         style="fill:none;stroke:#ff0000;stroke-width:7.79527569;stroke-miterlimit:4;stroke-dasharray:none"
         d="m 924.63279,-831.87275 343.31061,0"
         id="path6617"
         inkscape:connector-curvature="0" />
      <path
         style="fill:none;stroke:#ff0000;stroke-width:7.79527569;stroke-miterlimit:4;stroke-dasharray:none"
         d="m 1267.9434,-846.96774 -343.31061,0.71429"
         id="path27316"
         inkscape:connector-curvature="0" />
      <path
         style="fill:none;stroke:#ff0000;stroke-width:7.71489477;stroke-miterlimit:4;stroke-dasharray:none"
         d="m 685.55413,-540.90667 582.38927,-5e-5"
         id="path6593"
         inkscape:connector-curvature="0" />
      <path
         style="fill:none;stroke:#ff0000;stroke-width:7.65775633;stroke-miterlimit:4;stroke-dasharray:none"
         d="m 1267.9434,-569.66807 -343.31061,0"
         id="path27322"
         inkscape:connector-curvature="0" />
      <path
         style="fill:none;stroke:#ff0000;stroke-width:7.79527569;stroke-miterlimit:4;stroke-dasharray:none"
         d="m 685.55413,513.27123 582.38927,-3e-5"
         id="path6597"
         inkscape:connector-curvature="0" />
      <path
         style="fill:none;stroke:#ff0000;stroke-width:7.79527569;stroke-miterlimit:4;stroke-dasharray:none"
         d="m 925.95699,542.03253 341.98641,2e-5"
         id="path6601"
         inkscape:connector-curvature="0" />
      <path
         sodipodi:nodetypes="cc"
         inkscape:connector-curvature="0"
         style="fill:none;stroke:#ff0000;stroke-width:7.79527569;stroke-miterlimit:4;stroke-dasharray:none"
         d="m 699.63263,542.03253 196.23886,0"
         id="path21534" />
      <path
         style="fill:none;stroke:#ff0000;stroke-width:7.71332359;stroke-miterlimit:4;stroke-dasharray:none"
         d="m 1267.9434,-278.70214 -582.38927,0"
         id="path6589"
         inkscape:connector-curvature="0" />
      <path
         style="fill:none;stroke:#ff0000;stroke-width:7.6887455;stroke-miterlimit:4;stroke-dasharray:none"
         d="m 685.55413,-278.70214 0,515.38805"
         id="path6587"
         inkscape:connector-curvature="0" />
      <path
         style="fill:none;stroke:#ff0000;stroke-width:7.71332359;stroke-miterlimit:4;stroke-dasharray:none"
         d="m 685.55413,251.06661 582.38927,-5e-5"
         id="path6585"
         inkscape:connector-curvature="0" />
      <path
         sodipodi:nodetypes="cccc"
         inkscape:connector-curvature="0"
         style="fill:none;stroke:#0000ff;stroke-width:7.79527569;stroke-miterlimit:4;stroke-dasharray:none"
         d="m 431.41986,-1108.3408 0,848.06949 0,494.3357 0,819.01211"
         id="path21450" />
      <path
         sodipodi:nodetypes="cc"
         inkscape:connector-curvature="0"
         style="fill:none;stroke:#0000ff;stroke-width:7.79527569;stroke-miterlimit:4;stroke-dasharray:none"
         d="m 685.55413,-278.70214 0,-830.35296"
         id="path21452" />
      <path
         sodipodi:nodetypes="cc"
         inkscape:connector-curvature="0"
         style="fill:none;stroke:#ff0000;stroke-width:7.79527569;stroke-miterlimit:4;stroke-dasharray:none"
         d="m 431.41986,-264.32144 254.13427,0"
         id="path21526" />
      <path
         sodipodi:nodetypes="cc"
         inkscape:connector-curvature="0"
         style="fill:none;stroke:#ff0000;stroke-width:7.79527569;stroke-miterlimit:4;stroke-dasharray:none"
         d="m 431.41986,236.68591 254.13427,0"
         id="path21528" />
      <path
         style="fill:none;stroke:#ff0000;stroke-width:7.79527569;stroke-miterlimit:4;stroke-dasharray:none"
         d="m 924.63279,804.2372 343.31061,-3e-5"
         id="path6605"
         inkscape:connector-curvature="0" />
      <path
         sodipodi:nodetypes="cc"
         inkscape:connector-curvature="0"
         style="fill:none;stroke:#ff0000;stroke-width:7.79527569;stroke-miterlimit:4;stroke-dasharray:none"
         d="m 699.9348,804.2372 195.93669,0"
         id="path21550" />
      <path
         sodipodi:nodetypes="cc"
         inkscape:connector-curvature="0"
         style="fill:none;stroke:#ff0000;stroke-width:7.79527569;stroke-miterlimit:4;stroke-dasharray:none"
         d="m 895.87149,818.6178 -195.93669,0"
         id="path21552" />
      <path
         style="fill:none;stroke:#ff0000;stroke-width:7.79527569;stroke-miterlimit:4;stroke-dasharray:none"
         d="m 1267.9434,818.61782 -343.31061,-2e-5"
         id="path27328"
         inkscape:connector-curvature="0" />
      <path
         id="path3848-1"
         d="m 534.18718,87.61085 a 16.8524,16.8524 0 1 0 0,33.7048 16.8524,16.8524 0 0 0 0,-33.7048 z"
         style="fill:none;stroke:#0000ff;stroke-width:7.79527569;stroke-miterlimit:4;stroke-dasharray:none"
         inkscape:connector-curvature="0" />
      <path
         id="path3850-3"
         d="m 534.18718,-148.95126 a 16.8524,16.8524 0 1 0 0,33.7048 16.8524,16.8524 0 0 0 0,-33.7048 z"
         style="fill:none;stroke:#0000ff;stroke-width:7.79527569;stroke-miterlimit:4;stroke-dasharray:none"
         inkscape:connector-curvature="0" />
      <path
         style="fill:none;fill-rule:evenodd;stroke:#0000ff;stroke-width:7.92025232;stroke-linecap:butt;stroke-linejoin:miter;stroke-miterlimit:4;stroke-dasharray:none;stroke-opacity:1"
         d="m 685.55413,542.0326 0,-305.34669"
         id="path6874"
         inkscape:connector-curvature="0" />
      <path
         style="fill:none;fill-rule:evenodd;stroke:#0000ff;stroke-width:7.73149586;stroke-linecap:butt;stroke-linejoin:miter;stroke-miterlimit:4;stroke-dasharray:none;stroke-opacity:1"
         d="m 685.55413,-569.66807 14.94017,0 -0.55875,-376.35187 195.93554,0 0,376.35156 28.7617,0 0,-451.84962 343.31061,0 0,35.51943 29.3457,-13.9278 0,54.28519 -29.3457,-10.35739 0,65.50196 29.3457,-13.9278 0,54.2852 -29.3457,-10.3574 0,65.5019 29.3457,-13.9277 0,54.2852 -29.3457,-10.3575 0,65.502 29.3457,-13.9277 0,54.2851 -29.3457,-10.3574 0,65.5019 29.3457,-13.9277 0,54.2852 -29.3457,-10.3575 0,65.502 29.3457,-13.9277 0,54.2851 -29.3457,-10.3574 0,65.5019 29.3457,-13.9277 0,54.2852 -29.3457,-10.3575 0,65.502 29.3457,-13.9277 0,54.2851 -29.3457,-10.3574 0,65.502 29.3457,-13.9278 0,54.2852 -29.3457,-10.3574 0,65.5019 29.3457,-13.9277 0,54.285098 -29.3457,-10.357394 0,60.193506 -301.51761,0 c -2.9413,0 -5.8636,1.2112 -7.9434,3.291 -2.0798,2.0798 -3.291,5.0021 -3.291,7.9434 l 0,22.4707 c 0,2.9413 1.2112,7.51 3.291,9.5898 2.0798,2.0798 5.0021,1.6445 7.9434,1.6445 l 301.51761,0 0,55.870891 29.3457,-13.927709 0,54.285078 -29.3457,-10.357398 0,65.501998 29.3457,-13.9278 0,54.28521 -29.3457,-10.3574 0,65.5019 29.3457,-13.9277 0,54.2852 -29.3457,-10.3575 0,65.502 29.3457,-13.9277 0,54.2851 -29.3457,-10.3574 0,65.5019 29.3457,-13.9277 0,54.2852 -29.3457,-10.3575 0,65.502 29.3457,-13.9277 0,54.2851 -29.3457,-10.3574 0,65.5019 29.3457,-13.9277 0,54.2852 -29.3457,-10.3575 0,65.502 29.3457,-13.9277 0,54.2851 -29.3457,-10.3574 0,65.502 29.3457,-13.9278 0,54.2852 -29.3457,-10.3574 0,65.5019 29.3457,-13.9277 0,54.2851 -29.3457,-10.3574 0,39.84203 m 0,0 -343.31061,0 0,-451.8496 -28.7617,0 0,376.3516 -195.93554,0 0,-376.3516 -14.38142,-2e-4 0,510.3296"
         id="path6936"
         inkscape:connector-curvature="0"
         sodipodi:nodetypes="cccccccccccccccccccccccccccccccccccccccccccccccccssssssccccccccccccccccccccccccccccccccccccccccccccccccccc" />
    </g>
    <flowRoot
       xml:space="preserve"
       id="flowRoot4328"
       style="font-style:normal;font-weight:normal;font-size:15px;line-height:125%;font-family:Sans;letter-spacing:0px;word-spacing:0px;fill:#00ff00;fill-opacity:1;stroke:#00ff00;stroke-width:1px;stroke-linecap:butt;stroke-linejoin:miter;stroke-opacity:1;"
       transform="matrix(1.2002592,1.0495572e-8,-1.0495572e-8,1.2002592,-536.52177,-53.313527)"><flowRegion
         id="flowRegion4330"><rect
           id="rect4332"
           width="924.56641"
           height="121.99931"
           x="1479.3063"
           y="833.89594"
           style="font-size:15px;fill:#00ff00;fill-opacity:1;stroke:#00ff00;stroke-opacity:1;" /></flowRegion><flowPara
         id="flowPara4334">ECT CORRUGATECARDBOARD BOX</flowPara><flowPara
         id="flowPara4340"
         style="font-weight:bold;fill:#00ff00;fill-opacity:1;stroke:#00ff00;stroke-opacity:1;" /></flowRoot>    <path
       style="fill:none;fill-rule:evenodd;stroke:#00ff00;stroke-width:2.050807;stroke-linecap:butt;stroke-linejoin:miter;stroke-miterlimit:4;stroke-dasharray:none;stroke-opacity:1;fill-opacity:1"
       d="m 1580.9076,998.83026 c 6.3497,2e-5 4.6203,-14.84099 10.9354,-15.08699 5.2911,-0.20631 4.8626,15.087 11.0236,14.9128 6.3497,10e-6 4.6203,-14.8412 10.9354,-15.08718 5.291,-0.20642 4.8625,15.08719 11.0236,14.91299 6.3496,-1e-5 4.6203,-14.84131 10.9353,-15.08712 5.2911,-0.20649 4.8626,15.08712 11.0236,14.91271 6.3496,-10e-6 4.6203,-14.8411 10.9353,-15.08699 5.291,-0.2065 4.8627,15.08699 11.0237,14.91271 6.3496,-2e-5 4.6203,-14.84111 10.9353,-15.08713 5.291,-0.20648 4.8626,15.08712 11.0237,14.91302 6.3496,0 4.6203,-14.84139 10.9353,-15.08742 5.291,-0.20627 4.8626,15.08742 11.0237,14.91302 6.3496,-2e-5 4.6203,-14.84131 10.9353,-15.08721 5.291,-0.2063 4.8626,15.08721 11.0237,14.9129 6.3495,-10e-6 4.6202,-14.8414 10.9353,-15.08709 5.2909,-0.20652 4.8626,15.08709 11.0237,14.91259 6.3495,-10e-6 4.6202,-14.841 10.9353,-15.087 5.291,-0.20639 4.8626,15.087 11.0236,14.9127 6.3497,10e-6 4.6203,-14.8411 10.9353,-15.0871 5.2911,-0.20648 4.8627,15.08711 11.0237,14.9129 6.3496,-10e-6 4.6203,-14.8413 10.9353,-15.08721 5.291,-0.20649 4.8626,15.0872 11.0237,14.91281 6.3495,-10e-6 4.6203,-14.841 10.9353,-15.087 5.291,-0.2064 4.8626,15.08699 11.0237,14.91281 6.3496,-10e-6 4.6202,-14.84112 10.9353,-15.087 5.291,-0.20651 4.8626,15.087 11.0237,14.9126 6.3495,-2e-5 4.6202,-14.84112 10.9352,-15.08721 5.291,-0.2063 4.8627,15.0872 11.0237,14.91299 6.3497,10e-6 4.6203,-14.84119 10.9353,-15.0871 5.2911,-0.20627 4.8627,15.08711 11.0237,14.9128 6.3496,10e-6 4.6202,-14.84139 10.9354,-15.08709 5.291,-0.20629 4.8626,15.0871 11.0235,14.91259 6.3496,0 4.6203,-14.84089 10.9355,-15.08698 5.2909,-0.2063 4.8626,15.08699 11.0236,14.9127 6.3496,-10e-6 4.6202,-14.84102 10.9353,-15.08692 5.2911,-0.20628 4.8626,15.0869 11.0237,14.91252"
       id="path4350"
       inkscape:connector-curvature="0"
       sodipodi:nodetypes="cscscscscscscscscscscscscscscscscscsc" />
    <path
       style="fill:#00ff00;fill-rule:evenodd;stroke:#00ff00;stroke-width:1.68741477px;stroke-linecap:butt;stroke-linejoin:miter;stroke-opacity:1;fill-opacity:1"
       d="m 1591.843,983.74327 373.3026,-2.96311"
       id="path4499"
       inkscape:connector-curvature="0" />
    <path
       style="fill:#00ff00;fill-rule:evenodd;stroke:#00ff00;stroke-width:1.68741477px;stroke-linecap:butt;stroke-linejoin:miter;stroke-opacity:1;fill-opacity:1"
       d="m 1580.9076,998.83026 395.2617,-3.13758"
       id="path4501"
       inkscape:connector-curvature="0" />
    <text
       xml:space="preserve"
       style="font-style:normal;font-weight:normal;font-size:15.00323868px;line-height:125%;font-family:Sans;letter-spacing:0px;word-spacing:0px;fill:#00ff00;fill-opacity:1;stroke:#00ff00;stroke-width:1px;stroke-linecap:butt;stroke-linejoin:miter;stroke-opacity:1;"
       x="2001.1326"
       y="993.53583"
       id="text4503"
       sodipodi:linespacing="125%"><tspan
         sodipodi:role="line"
         id="tspan4505"
         x="2001.1326"
         y="993.53583">4mm thickness</tspan></text>
    <path
       style="fill:#00ff00;fill-rule:evenodd;stroke:#00ff00;stroke-width:1.10867238px;stroke-linecap:butt;stroke-linejoin:miter;stroke-opacity:1;fill-opacity:1"
       d="m 1979.8804,980.51198 16.1451,-2e-5"
       id="path4507"
       inkscape:connector-curvature="0" />
    <path
       style="fill:#00ff00;fill-rule:evenodd;stroke:#00ff00;stroke-width:1.05969799px;stroke-linecap:butt;stroke-linejoin:miter;stroke-opacity:1;fill-opacity:1"
       d="m 1980.5093,995.69268 15.3426,-10e-6"
       id="path4509"
       inkscape:connector-curvature="0" />
    <path
       style="fill:#00ff00;fill-rule:evenodd;stroke:#00ff00;stroke-width:1.20025909px;stroke-linecap:butt;stroke-linejoin:miter;stroke-opacity:1;fill-opacity:1"
       d="m 1986.5641,980.51198 0,14.93"
       id="path4511"
       inkscape:connector-curvature="0" />
    <text
       xml:space="preserve"
       style="font-style:normal;font-weight:normal;font-size:16.50356293px;line-height:125%;font-family:Sans;letter-spacing:0px;word-spacing:0px;fill:#00ff00;fill-opacity:1;stroke:#00ff00;stroke-width:1px;stroke-linecap:butt;stroke-linejoin:miter;stroke-opacity:1;"
       x="1239.9255"
       y="991.72491"
       id="text4518"
       sodipodi:linespacing="125%"><tspan
         sodipodi:role="line"
         id="tspan4520"
         x="1239.9255"
         y="991.72491">European store:</tspan><tspan
         sodipodi:role="line"
         x="1239.9255"
         y="1012.3544"
         id="tspan4522"
         style="font-weight:bold;fill:#00ff00;fill-opacity:1;stroke:#00ff00;stroke-opacity:1;">LEROY MERLIN</tspan><tspan
         sodipodi:role="line"
         x="1239.9255"
         y="1032.9838"
         id="tspan4524"
         style="font-weight:bold;fill:#00ff00;fill-opacity:1;stroke:#00ff00;stroke-opacity:1;">P/N:LM-PLUSL</tspan></text>
    <text
       xml:space="preserve"
       style="font-style:normal;font-weight:normal;font-size:16.25px;line-height:125%;font-family:Sans;letter-spacing:0px;word-spacing:0px;fill:#00ff00;fill-opacity:1;stroke:#00ff00;stroke-width:1px;stroke-linecap:butt;stroke-linejoin:miter;stroke-opacity:1;"
       x="1637.4329"
       y="1026.969"
       id="text4588"
       sodipodi:linespacing="125%"><tspan
         sodipodi:role="line"
         id="tspan4590"
         x="1637.4329"
         y="1026.969">preferable corrugation orientation</tspan></text>
    <text
       xml:space="preserve"
       style="font-style:normal;font-weight:normal;font-size:40px;line-height:125%;font-family:Sans;letter-spacing:0px;word-spacing:0px;fill:#00ff00;fill-opacity:1;stroke:none;stroke-width:1px;stroke-linecap:butt;stroke-linejoin:miter;stroke-opacity:1"
       x="-733.56537"
       y="366.91397"
       id="text4178"
       sodipodi:linespacing="125%"
       transform="matrix(0,-1,1,0,0,0)"><tspan
         sodipodi:role="line"
         id="tspan4180"
         x="-733.56537"
         y="366.91397">glue</tspan></text>
    <text
       xml:space="preserve"
       style="font-style:normal;font-weight:normal;font-size:40px;line-height:125%;font-family:Sans;letter-spacing:0px;word-spacing:0px;fill:#00ff00;fill-opacity:1;stroke:none;stroke-width:1px;stroke-linecap:butt;stroke-linejoin:miter;stroke-opacity:1"
       x="-738.50061"
       y="148.17802"
       id="text4178-9"
       sodipodi:linespacing="125%"
       transform="matrix(0,-1,1,0,0,0)"><tspan
         sodipodi:role="line"
         id="tspan4180-7"
         x="-738.50061"
         y="148.17802">glue</tspan></text>
    <text
       xml:space="preserve"
       style="font-style:normal;font-weight:normal;font-size:40px;line-height:125%;font-family:Sans;letter-spacing:0px;word-spacing:0px;fill:#00ff00;fill-opacity:1;stroke:none;stroke-width:1px;stroke-linecap:butt;stroke-linejoin:miter;stroke-opacity:1"
       x="-455.64346"
       y="188.17804"
       id="text4178-9-5"
       sodipodi:linespacing="125%"
       transform="matrix(0,-1,1,0,0,0)"><tspan
         sodipodi:role="line"
         id="tspan4180-7-3"
         x="-455.64346"
         y="188.17804">glue</tspan></text>
    <text
       xml:space="preserve"
       style="font-style:normal;font-weight:normal;font-size:40px;line-height:125%;font-family:Sans;letter-spacing:0px;word-spacing:0px;fill:#00ff00;fill-opacity:1;stroke:none;stroke-width:1px;stroke-linecap:butt;stroke-linejoin:miter;stroke-opacity:1"
       x="-445.10522"
       y="376.71042"
       id="text4178-8"
       sodipodi:linespacing="125%"
       transform="matrix(0,-1,1,0,0,0)"><tspan
         sodipodi:role="line"
         id="tspan4180-8"
         x="-445.10522"
         y="376.71042">glue</tspan></text>
    <text
       xml:space="preserve"
       style="font-style:normal;font-weight:normal;font-size:40px;line-height:125%;font-family:Sans;letter-spacing:0px;word-spacing:0px;fill:#00ff00;fill-opacity:1;stroke:none;stroke-width:1px;stroke-linecap:butt;stroke-linejoin:miter;stroke-opacity:1"
       x="364.46558"
       y="-1710.8511"
       id="text4178-90"
       sodipodi:linespacing="125%"
       transform="matrix(0,1,-1,0,0,0)"><tspan
         sodipodi:role="line"
         id="tspan4180-3"
         x="364.46558"
         y="-1710.8511">glue</tspan></text>
    <text
       xml:space="preserve"
       style="font-style:normal;font-weight:normal;font-size:40px;line-height:125%;font-family:Sans;letter-spacing:0px;word-spacing:0px;fill:#00ff00;fill-opacity:1;stroke:none;stroke-width:1px;stroke-linecap:butt;stroke-linejoin:miter;stroke-opacity:1"
       x="365.24463"
       y="-1925.3013"
       id="text4178-9-56"
       sodipodi:linespacing="125%"
       transform="matrix(0,1,-1,0,0,0)"><tspan
         sodipodi:role="line"
         id="tspan4180-7-9"
         x="365.24463"
         y="-1925.3013">glue</tspan></text>
    <text
       xml:space="preserve"
       style="font-style:normal;font-weight:normal;font-size:40px;line-height:125%;font-family:Sans;letter-spacing:0px;word-spacing:0px;fill:#00ff00;fill-opacity:1;stroke:none;stroke-width:1px;stroke-linecap:butt;stroke-linejoin:miter;stroke-opacity:1"
       x="663.81604"
       y="-1948.1584"
       id="text4178-9-5-4"
       sodipodi:linespacing="125%"
       transform="matrix(0,1,-1,0,0,0)"><tspan
         sodipodi:role="line"
         id="tspan4180-7-3-5"
         x="663.81604"
         y="-1948.1584">glue</tspan></text>
    <text
       xml:space="preserve"
       style="font-style:normal;font-weight:normal;font-size:40px;line-height:125%;font-family:Sans;letter-spacing:0px;word-spacing:0px;fill:#00ff00;fill-opacity:1;stroke:none;stroke-width:1px;stroke-linecap:butt;stroke-linejoin:miter;stroke-opacity:1"
       x="672.92572"
       y="-1701.0547"
       id="text4178-8-3"
       sodipodi:linespacing="125%"
       transform="matrix(0,1,-1,0,0,0)"><tspan
         sodipodi:role="line"
         id="tspan4180-8-5"
         x="672.92572"
         y="-1701.0547">glue</tspan></text>
    <text
       xml:space="preserve"
       style="font-style:normal;font-weight:normal;font-size:40px;line-height:125%;font-family:Sans;letter-spacing:0px;word-spacing:0px;fill:#00ff00;fill-opacity:1;stroke:none;stroke-width:1px;stroke-linecap:butt;stroke-linejoin:miter;stroke-opacity:1"
       x="1008.2877"
       y="198.70673"
       id="text4178-8-4"
       sodipodi:linespacing="125%"><tspan
         sodipodi:role="line"
         id="tspan4180-8-4"
         x="1008.2877"
         y="198.70673">glue</tspan></text>
  </g>
</svg>
