<?xml version="1.0" encoding="UTF-8" standalone="no"?>
<!-- Created with Inkscape (http://www.inkscape.org/) -->

<svg
   xmlns:dc="http://purl.org/dc/elements/1.1/"
   xmlns:cc="http://creativecommons.org/ns#"
   xmlns:rdf="http://www.w3.org/1999/02/22-rdf-syntax-ns#"
   xmlns:svg="http://www.w3.org/2000/svg"
   xmlns="http://www.w3.org/2000/svg"
   xmlns:sodipodi="http://sodipodi.sourceforge.net/DTD/sodipodi-0.dtd"
   xmlns:inkscape="http://www.inkscape.org/namespaces/inkscape"
   width="600mm"
   height="300mm"
   viewBox="0 0 2125.9843 1062.9921"
   id="svg2"
   version="1.1"
   inkscape:version="0.91 r"
   sodipodi:docname="outter_box3.svg">
  <defs
     id="defs4" />
  <sodipodi:namedview
     id="base"
     pagecolor="#ffffff"
     bordercolor="#666666"
     borderopacity="1.0"
     inkscape:pageopacity="0.0"
     inkscape:pageshadow="2"
     inkscape:zoom="0.49497475"
     inkscape:cx="998.85912"
     inkscape:cy="534.56709"
     inkscape:document-units="px"
     inkscape:current-layer="layer1"
     showgrid="false"
     inkscape:window-width="1631"
     inkscape:window-height="1026"
     inkscape:window-x="49"
     inkscape:window-y="24"
     inkscape:window-maximized="1" />
  <metadata
     id="metadata7">
    <rdf:RDF>
      <cc:Work
         rdf:about="">
        <dc:format>image/svg+xml</dc:format>
        <dc:type
           rdf:resource="http://purl.org/dc/dcmitype/StillImage" />
        <dc:title />
      </cc:Work>
    </rdf:RDF>
  </metadata>
  <g
     inkscape:label="Layer 1"
     inkscape:groupmode="layer"
     id="layer1"
     transform="translate(0,10.629923)">
    <flowRoot
       xml:space="preserve"
       id="flowRoot4328"
       style="font-style:normal;font-weight:normal;font-size:15px;line-height:125%;font-family:Sans;letter-spacing:0px;word-spacing:0px;fill:#00ff00;fill-opacity:1;stroke:#00ff00;stroke-width:1px;stroke-linecap:butt;stroke-linejoin:miter;stroke-opacity:1;"
       transform="matrix(1.2002592,1.0495572e-8,-1.0495572e-8,1.2002592,-536.52177,-53.313527)"><flowRegion
         id="flowRegion4330"><rect
           id="rect4332"
           width="924.56641"
           height="121.99931"
           x="1479.3063"
           y="833.89594"
           style="font-size:15px;stroke:#00ff00;stroke-opacity:1;fill:#00ff00;fill-opacity:1;" /></flowRegion><flowPara
         id="flowPara4334">ECT CORRUGATECARDBOARD BOX</flowPara><flowPara
         id="flowPara4340"
         style="font-weight:bold;stroke:#00ff00;stroke-opacity:1;fill:#00ff00;fill-opacity:1;" /></flowRoot>    <path
       style="fill:none;fill-rule:evenodd;stroke:#00ff00;stroke-width:2.050807;stroke-linecap:butt;stroke-linejoin:miter;stroke-miterlimit:4;stroke-dasharray:none;stroke-opacity:1;fill-opacity:1"
       d="m 1580.9076,998.83026 c 6.3497,2e-5 4.6203,-14.84099 10.9354,-15.08699 5.2911,-0.20631 4.8626,15.087 11.0236,14.9128 6.3497,10e-6 4.6203,-14.8412 10.9354,-15.08718 5.291,-0.20642 4.8625,15.08719 11.0236,14.91299 6.3496,-1e-5 4.6203,-14.84131 10.9353,-15.08712 5.2911,-0.20649 4.8626,15.08712 11.0236,14.91271 6.3496,-10e-6 4.6203,-14.8411 10.9353,-15.08699 5.291,-0.2065 4.8627,15.08699 11.0237,14.91271 6.3496,-2e-5 4.6203,-14.84111 10.9353,-15.08713 5.291,-0.20648 4.8626,15.08712 11.0237,14.91302 6.3496,0 4.6203,-14.84139 10.9353,-15.08742 5.291,-0.20627 4.8626,15.08742 11.0237,14.91302 6.3496,-2e-5 4.6203,-14.84131 10.9353,-15.08721 5.291,-0.2063 4.8626,15.08721 11.0237,14.9129 6.3495,-10e-6 4.6202,-14.8414 10.9353,-15.08709 5.2909,-0.20652 4.8626,15.08709 11.0237,14.91259 6.3495,-10e-6 4.6202,-14.841 10.9353,-15.087 5.291,-0.20639 4.8626,15.087 11.0236,14.9127 6.3497,10e-6 4.6203,-14.8411 10.9353,-15.0871 5.2911,-0.20648 4.8627,15.08711 11.0237,14.9129 6.3496,-10e-6 4.6203,-14.8413 10.9353,-15.08721 5.291,-0.20649 4.8626,15.0872 11.0237,14.91281 6.3495,-10e-6 4.6203,-14.841 10.9353,-15.087 5.291,-0.2064 4.8626,15.08699 11.0237,14.91281 6.3496,-10e-6 4.6202,-14.84112 10.9353,-15.087 5.291,-0.20651 4.8626,15.087 11.0237,14.9126 6.3495,-2e-5 4.6202,-14.84112 10.9352,-15.08721 5.291,-0.2063 4.8627,15.0872 11.0237,14.91299 6.3497,10e-6 4.6203,-14.84119 10.9353,-15.0871 5.2911,-0.20627 4.8627,15.08711 11.0237,14.9128 6.3496,10e-6 4.6202,-14.84139 10.9354,-15.08709 5.291,-0.20629 4.8626,15.0871 11.0235,14.91259 6.3496,0 4.6203,-14.84089 10.9355,-15.08698 5.2909,-0.2063 4.8626,15.08699 11.0236,14.9127 6.3496,-10e-6 4.6202,-14.84102 10.9353,-15.08692 5.2911,-0.20628 4.8626,15.0869 11.0237,14.91252"
       id="path4350"
       inkscape:connector-curvature="0"
       sodipodi:nodetypes="cscscscscscscscscscscscscscscscscscsc" />
    <path
       style="fill:#00ff00;fill-rule:evenodd;stroke:#00ff00;stroke-width:1.68741477px;stroke-linecap:butt;stroke-linejoin:miter;stroke-opacity:1;fill-opacity:1"
       d="m 1591.843,983.74327 373.3026,-2.96311"
       id="path4499"
       inkscape:connector-curvature="0" />
    <path
       style="fill:#00ff00;fill-rule:evenodd;stroke:#00ff00;stroke-width:1.68741477px;stroke-linecap:butt;stroke-linejoin:miter;stroke-opacity:1;fill-opacity:1"
       d="m 1580.9076,998.83026 395.2617,-3.13758"
       id="path4501"
       inkscape:connector-curvature="0" />
    <text
       xml:space="preserve"
       style="font-style:normal;font-weight:normal;font-size:15.00323868px;line-height:125%;font-family:Sans;letter-spacing:0px;word-spacing:0px;fill:#00ff00;fill-opacity:1;stroke:#00ff00;stroke-width:1px;stroke-linecap:butt;stroke-linejoin:miter;stroke-opacity:1;"
       x="2001.1326"
       y="993.53583"
       id="text4503"
       sodipodi:linespacing="125%"><tspan
         sodipodi:role="line"
         id="tspan4505"
         x="2001.1326"
         y="993.53583">4mm thickness</tspan></text>
    <path
       style="fill:#00ff00;fill-rule:evenodd;stroke:#00ff00;stroke-width:1.10867238px;stroke-linecap:butt;stroke-linejoin:miter;stroke-opacity:1;fill-opacity:1"
       d="m 1979.8804,980.51198 16.1451,-2e-5"
       id="path4507"
       inkscape:connector-curvature="0" />
    <path
       style="fill:#00ff00;fill-rule:evenodd;stroke:#00ff00;stroke-width:1.05969799px;stroke-linecap:butt;stroke-linejoin:miter;stroke-opacity:1;fill-opacity:1"
       d="m 1980.5093,995.69268 15.3426,-10e-6"
       id="path4509"
       inkscape:connector-curvature="0" />
    <path
       style="fill:#00ff00;fill-rule:evenodd;stroke:#00ff00;stroke-width:1.20025909px;stroke-linecap:butt;stroke-linejoin:miter;stroke-opacity:1;fill-opacity:1"
       d="m 1986.5641,980.51198 0,14.93"
       id="path4511"
       inkscape:connector-curvature="0" />
    <text
       xml:space="preserve"
       style="font-style:normal;font-weight:normal;font-size:16.50356293px;line-height:125%;font-family:Sans;letter-spacing:0px;word-spacing:0px;fill:#00ff00;fill-opacity:1;stroke:#00ff00;stroke-width:1px;stroke-linecap:butt;stroke-linejoin:miter;stroke-opacity:1;"
       x="1239.9255"
       y="991.72491"
       id="text4518"
       sodipodi:linespacing="125%"><tspan
         sodipodi:role="line"
         id="tspan4520"
         x="1239.9255"
         y="991.72491">European store:</tspan><tspan
         sodipodi:role="line"
         x="1239.9255"
         y="1012.3544"
         id="tspan4522"
         style="font-weight:bold;stroke:#00ff00;stroke-opacity:1;fill:#00ff00;fill-opacity:1;">LEROY MERLIN</tspan><tspan
         sodipodi:role="line"
         x="1239.9255"
         y="1032.9838"
         id="tspan4524"
         style="font-weight:bold;stroke:#00ff00;stroke-opacity:1;fill:#00ff00;fill-opacity:1;">P/N:LM-PLUSL</tspan></text>
    <text
       xml:space="preserve"
       style="font-style:normal;font-weight:normal;font-size:16.25px;line-height:125%;font-family:Sans;letter-spacing:0px;word-spacing:0px;fill:#00ff00;fill-opacity:1;stroke:#00ff00;stroke-width:1px;stroke-linecap:butt;stroke-linejoin:miter;stroke-opacity:1;"
       x="1637.4329"
       y="1026.969"
       id="text4588"
       sodipodi:linespacing="125%"><tspan
         sodipodi:role="line"
         id="tspan4590"
         x="1637.4329"
         y="1026.969">preferable corrugation orientation</tspan></text>
    <path
       sodipodi:nodetypes="ccccccccccccccccccccccccccccccccccccccccccccccccccccccccccccccccccccccccccccccccccccccccccccccccccccccccccccccccccccccccccccccccccccccccccccccccccccccccccccccccccccccccccccc"
       inkscape:connector-curvature="0"
       id="path27266-1"
       d="m 1073.8983,866.3662 0,-800.2109 m 0,0 0,800.2109 58.3477,0 -10.3574,29.3457 54.2851,0 -13.9278,-29.3457 65.502,0 -10.3574,29.3457 54.2851,0 -13.9277,-29.3457 65.5019,0 -10.3574,29.3457 54.2851,0 -13.9277,-29.3457 65.502,0 -10.3575,29.3457 54.2852,0 -13.9277,-29.3457 65.5019,0 -10.3574,29.3457 54.2851,0 -13.9277,-29.3457 65.502,0 -10.3575,29.3457 54.2852,0 -13.9277,-29.3457 65.5019,0 -10.3574,29.3457 54.2852,0 -13.9278,-29.3457 65.502,0 -10.3574,29.3457 54.2851,0 -13.9277,-29.3457 65.5019,0 -10.3574,29.3457 54.2852,0 -13.9278,-29.3457 65.502,0 -10.3574,29.3457 54.2852,0 -13.9278,-29.3457 37.3653,0 0,-0.088 0,-787.6816 0,-12.4413 -37.3653,0 13.9278,29.3457 -54.2852,0 10.3574,-29.3457 -65.502,0 13.9278,29.3457 -54.2852,0 10.3574,-29.3457 -65.5019,0 13.9277,29.3457 -54.2852,0 10.3575,-29.3457 -65.502,0 13.9277,29.3457 -54.2851,0 10.3574,-29.3457 -65.5019,0 13.9277,29.3457 -54.2852,0 10.3575,-29.3457 -65.502,0 13.9277,29.3457 -54.2851,0 10.3574,-29.3457 -65.5019,0 13.9277,29.3457 -54.2852,0 10.3575,-29.3457 -65.502,0 13.9277,29.3457 -54.2851,0 10.3574,-29.3457 -65.502,0 13.9278,29.3457 -54.2852,0 10.3574,-29.3457 -65.5019,0 13.9277,29.3457 -54.2851,0 10.3574,-29.3457 z m -102.6562,0 13.9277,29.3457 -54.2851,0 10.3574,-29.3457 -65.502,0 13.9278,29.3457 -54.2852,0 10.3574,-29.3457 -65.5019,0 13.9277,29.3457 -54.2852,0 10.3575,-29.3457 -65.502,0 13.9277,29.3457 -54.2851,0 10.3574,-29.3457 -65.5019,0 13.9277,29.3457 -54.2852,0 10.3575,-29.3457 -65.502,0 13.9277,29.3457 -54.2851,0 10.3574,-29.3457 -65.5019,0 13.9277,29.3457 -54.2852,0 10.3575,-29.3457 -65.502,0 13.9277,29.3457 -54.2851,0 10.3574,-29.3457 -65.502,0 13.9278,29.3457 -54.2852,0 10.3574,-29.3457 -65.5019,0 13.9277,29.3457 -54.2851,0 10.3574,-29.3457 -37.9961,0 0,800.2109 37.9961,0 -10.3574,29.3457 54.2851,0 -13.9277,-29.3457 65.5019,0 -10.3574,29.3457 54.2852,0 -13.9278,-29.3457 65.502,0 -10.3574,29.3457 54.2851,0 -13.9277,-29.3457 65.502,0 -10.3575,29.3457 54.2852,0 -13.9277,-29.3457 65.5019,0 -10.3574,29.3457 54.2851,0 -13.9277,-29.3457 65.502,0 -10.3575,29.3457 54.2852,0 -13.9277,-29.3457 65.5019,0 -10.3574,29.3457 54.2851,0 -13.9277,-29.3457 65.502,0 -10.3575,29.3457 54.2852,0 -13.9277,-29.3457 65.5019,0 -10.3574,29.3457 54.2852,0 -13.9278,-29.3457 65.502,0 -10.3574,29.3457 54.2851,0 -13.9277,-29.3457 57.7167,0 0,-800.2109 0,0 z"
       style="fill:none;stroke:#0000ff;stroke-width:2.07100025;stroke-miterlimit:4;stroke-dasharray:none" />
    <path
       id="path21516-8"
       d="m 524.33903,66.1553 0,465.0759 0,335.135"
       style="fill:none;stroke:#ff0000;stroke-width:2.07100025;stroke-miterlimit:4;stroke-dasharray:none"
       inkscape:connector-curvature="0"
       sodipodi:nodetypes="ccc" />
    <path
       id="path21522-8"
       d="m 1577.0017,66.1553 1.5153,800.2109"
       style="fill:none;stroke:#ff0000;stroke-width:2.07100025;stroke-miterlimit:4;stroke-dasharray:none"
       inkscape:connector-curvature="0"
       sodipodi:nodetypes="cc" />
    <path
       id="path21536-3"
       d="m 495.57793,66.1553 -2e-4,561.2735 0,238.9374"
       style="fill:none;stroke:#ff0000;stroke-width:2.07100025;stroke-miterlimit:4;stroke-dasharray:none"
       inkscape:connector-curvature="0"
       sodipodi:nodetypes="ccc" />
    <path
       id="path21540-0"
       d="m 1869.84,66.1553 -0.357,800.2109"
       style="fill:none;stroke:#ff0000;stroke-width:2.07100025;stroke-miterlimit:4;stroke-dasharray:none"
       inkscape:connector-curvature="0"
       sodipodi:nodetypes="cc" />
    <path
       id="path21546-5"
       d="m 233.37303,66.1553 -0.1786,800.2109"
       style="fill:none;stroke:#ff0000;stroke-width:2.07100025;stroke-miterlimit:4;stroke-dasharray:none"
       inkscape:connector-curvature="0"
       sodipodi:nodetypes="cc" />
    <path
       sodipodi:nodetypes="cccc"
       inkscape:connector-curvature="0"
       id="path27304-0"
       d="m 786.54283,66.1553 c 0,266.737 0,533.4739 0,800.2109 m 529.76957,0 c 0,-266.737 0,-533.4739 0,-800.2109"
       style="fill:none;stroke:#ff0000;stroke-width:2.07100025;stroke-miterlimit:4;stroke-dasharray:none" />
    <path
       id="path27316-8"
       d="m 1883.106,866.3662 0.7576,-800.2109"
       style="fill:none;stroke:#ff0000;stroke-width:2.07100025;stroke-miterlimit:4;stroke-dasharray:none"
       inkscape:connector-curvature="0"
       sodipodi:nodetypes="cc" />
    <path
       id="path27322-5"
       d="m 1607.2783,866.3662 9e-4,-800.211"
       style="fill:none;stroke:#ff0000;stroke-width:2.07100025;stroke-miterlimit:4;stroke-dasharray:none"
       inkscape:connector-curvature="0"
       sodipodi:nodetypes="cc" />
    <path
       id="path27328-7"
       d="m 218.99233,866.3662 c 0,-266.737 1e-4,-533.4739 1e-4,-800.2109"
       style="fill:none;stroke:#ff0000;stroke-width:2.07100025;stroke-miterlimit:4;stroke-dasharray:none"
       inkscape:connector-curvature="0"
       sodipodi:nodetypes="cc" />
    <text
       xml:space="preserve"
       style="font-style:normal;font-weight:normal;font-size:40px;line-height:125%;font-family:Sans;letter-spacing:0px;word-spacing:0px;fill:#00ff00;fill-opacity:1;stroke:none;stroke-width:2.07100025;stroke-linecap:butt;stroke-linejoin:miter;stroke-opacity:1;stroke-miterlimit:4;stroke-dasharray:none"
       x="-512.86182"
       y="369.48401"
       id="text4163"
       sodipodi:linespacing="125%"
       transform="matrix(0,-1,1,0,0,0)"><tspan
         sodipodi:role="line"
         id="tspan4165"
         x="-512.86182"
         y="369.48401">glue</tspan></text>
    <text
       xml:space="preserve"
       style="font-style:normal;font-weight:normal;font-size:40px;line-height:125%;font-family:Sans;letter-spacing:0px;word-spacing:0px;fill:#00ff00;fill-opacity:1;stroke:none;stroke-width:2.07100025;stroke-linecap:butt;stroke-linejoin:miter;stroke-opacity:1;stroke-miterlimit:4;stroke-dasharray:none"
       x="-511.77527"
       y="142.355"
       id="text4163-0"
       sodipodi:linespacing="125%"
       transform="matrix(0,-1,1,0,0,0)"><tspan
         sodipodi:role="line"
         id="tspan4165-2"
         x="-511.77527"
         y="142.355">glue</tspan></text>
    <text
       xml:space="preserve"
       style="font-style:normal;font-weight:normal;font-size:40px;line-height:125%;font-family:Sans;letter-spacing:0px;word-spacing:0px;fill:#00ff00;fill-opacity:1;stroke:none;stroke-width:2.07100025;stroke-linecap:butt;stroke-linejoin:miter;stroke-opacity:1;stroke-miterlimit:4;stroke-dasharray:none"
       x="370.66452"
       y="-1948.6611"
       id="text4163-0-4"
       sodipodi:linespacing="125%"
       transform="matrix(0,1,-1,0,0,0)"><tspan
         sodipodi:role="line"
         id="tspan4165-2-1"
         x="370.66452"
         y="-1948.6611">glue</tspan></text>
    <text
       xml:space="preserve"
       style="font-style:normal;font-weight:normal;font-size:40px;line-height:125%;font-family:Sans;letter-spacing:0px;word-spacing:0px;fill:#00ff00;fill-opacity:1;stroke:none;stroke-width:2.07100025;stroke-linecap:butt;stroke-linejoin:miter;stroke-opacity:1;stroke-miterlimit:4;stroke-dasharray:none"
       x="370.66452"
       y="-1752.6914"
       id="text4163-0-4-3"
       sodipodi:linespacing="125%"
       transform="matrix(0,1,-1,0,0,0)"><tspan
         sodipodi:role="line"
         id="tspan4165-2-1-4"
         x="370.66452"
         y="-1752.6914">glue</tspan></text>
    <text
       xml:space="preserve"
       style="font-style:normal;font-weight:normal;font-size:40px;line-height:125%;font-family:Sans;letter-spacing:0px;word-spacing:0px;fill:#00ff00;fill-opacity:1;stroke:none;stroke-width:2.07100025;stroke-linecap:butt;stroke-linejoin:miter;stroke-opacity:1;stroke-miterlimit:4;stroke-dasharray:none"
       x="88.571426"
       y="826.64783"
       id="text4221"
       sodipodi:linespacing="125%"><tspan
         sodipodi:role="line"
         id="tspan4223"
         x="88.571426"
         y="826.64783">tape</tspan></text>
    <text
       xml:space="preserve"
       style="font-style:normal;font-weight:normal;font-size:40px;line-height:125%;font-family:Sans;letter-spacing:0px;word-spacing:0px;fill:#00ff00;fill-opacity:1;stroke:none;stroke-width:2.07100025;stroke-linecap:butt;stroke-linejoin:miter;stroke-opacity:1;stroke-miterlimit:4;stroke-dasharray:none"
       x="321.12448"
       y="830.81653"
       id="text4221-1"
       sodipodi:linespacing="125%"><tspan
         sodipodi:role="line"
         id="tspan4223-2"
         x="321.12448"
         y="830.81653">tape</tspan></text>
    <text
       xml:space="preserve"
       style="font-style:normal;font-weight:normal;font-size:40px;line-height:125%;font-family:Sans;letter-spacing:0px;word-spacing:0px;fill:#00ff00;fill-opacity:1;stroke:none;stroke-width:2.07100025;stroke-linecap:butt;stroke-linejoin:miter;stroke-opacity:1;stroke-miterlimit:4;stroke-dasharray:none"
       x="602.5531"
       y="827.95935"
       id="text4221-1-9"
       sodipodi:linespacing="125%"><tspan
         sodipodi:role="line"
         id="tspan4223-2-4"
         x="602.5531"
         y="827.95935">tape</tspan></text>
    <text
       xml:space="preserve"
       style="font-style:normal;font-weight:normal;font-size:40px;line-height:125%;font-family:Sans;letter-spacing:0px;word-spacing:0px;fill:#00ff00;fill-opacity:1;stroke:none;stroke-width:2.07100025;stroke-linecap:butt;stroke-linejoin:miter;stroke-opacity:1;stroke-miterlimit:4;stroke-dasharray:none"
       x="861.12451"
       y="829.38788"
       id="text4221-1-9-2"
       sodipodi:linespacing="125%"><tspan
         sodipodi:role="line"
         id="tspan4223-2-4-8"
         x="861.12451"
         y="829.38788">tape</tspan></text>
    <text
       xml:space="preserve"
       style="font-style:normal;font-weight:normal;font-size:40px;line-height:125%;font-family:Sans;letter-spacing:0px;word-spacing:0px;fill:#00ff00;fill-opacity:1;stroke:none;stroke-width:2.07100025;stroke-linecap:butt;stroke-linejoin:miter;stroke-opacity:1;stroke-miterlimit:4;stroke-dasharray:none"
       x="1151.1246"
       y="829.38788"
       id="text4221-1-9-2-4"
       sodipodi:linespacing="125%"><tspan
         sodipodi:role="line"
         id="tspan4223-2-4-8-2"
         x="1151.1246"
         y="829.38788">tape</tspan></text>
    <text
       xml:space="preserve"
       style="font-style:normal;font-weight:normal;font-size:40px;line-height:125%;font-family:Sans;letter-spacing:0px;word-spacing:0px;fill:#00ff00;fill-opacity:1;stroke:none;stroke-width:2.07100025;stroke-linecap:butt;stroke-linejoin:miter;stroke-opacity:1;stroke-miterlimit:4;stroke-dasharray:none"
       x="1405.4103"
       y="827.95935"
       id="text4221-1-9-2-4-8"
       sodipodi:linespacing="125%"><tspan
         sodipodi:role="line"
         id="tspan4223-2-4-8-2-9"
         x="1405.4103"
         y="827.95935">tape</tspan></text>
    <text
       xml:space="preserve"
       style="font-style:normal;font-weight:normal;font-size:40px;line-height:125%;font-family:Sans;letter-spacing:0px;word-spacing:0px;fill:#00ff00;fill-opacity:1;stroke:none;stroke-width:2.07100025;stroke-linecap:butt;stroke-linejoin:miter;stroke-opacity:1;stroke-miterlimit:4;stroke-dasharray:none"
       x="1699.6962"
       y="825.10223"
       id="text4221-1-9-2-4-8-7"
       sodipodi:linespacing="125%"><tspan
         sodipodi:role="line"
         id="tspan4223-2-4-8-2-9-9"
         x="1699.6962"
         y="825.10223">tape</tspan></text>
    <text
       xml:space="preserve"
       style="font-style:normal;font-weight:normal;font-size:40px;line-height:125%;font-family:Sans;letter-spacing:0px;word-spacing:0px;fill:#00ff00;fill-opacity:1;stroke:none;stroke-width:2.07100025;stroke-linecap:butt;stroke-linejoin:miter;stroke-opacity:1;stroke-miterlimit:4;stroke-dasharray:none"
       x="1921.1248"
       y="823.67365"
       id="text4221-1-9-2-4-8-7-5"
       sodipodi:linespacing="125%"><tspan
         sodipodi:role="line"
         id="tspan4223-2-4-8-2-9-9-4"
         x="1921.1248"
         y="823.67365">tape</tspan></text>
    <text
       xml:space="preserve"
       style="font-style:normal;font-weight:normal;font-size:40px;line-height:125%;font-family:Sans;letter-spacing:0px;word-spacing:0px;fill:#00ff00;fill-opacity:1;stroke:none;stroke-width:2.07100025;stroke-linecap:butt;stroke-linejoin:miter;stroke-opacity:1;stroke-miterlimit:4;stroke-dasharray:none"
       x="-2011.4254"
       y="-127.87839"
       id="text4221-19"
       sodipodi:linespacing="125%"
       transform="scale(-1,-1)"><tspan
         sodipodi:role="line"
         id="tspan4223-5"
         x="-2011.4254"
         y="-127.87839">tape</tspan></text>
    <text
       xml:space="preserve"
       style="font-style:normal;font-weight:normal;font-size:40px;line-height:125%;font-family:Sans;letter-spacing:0px;word-spacing:0px;fill:#00ff00;fill-opacity:1;stroke:none;stroke-width:2.07100025;stroke-linecap:butt;stroke-linejoin:miter;stroke-opacity:1;stroke-miterlimit:4;stroke-dasharray:none"
       x="-1778.8723"
       y="-123.70969"
       id="text4221-1-90"
       sodipodi:linespacing="125%"
       transform="scale(-1,-1)"><tspan
         sodipodi:role="line"
         id="tspan4223-2-42"
         x="-1778.8723"
         y="-123.70969">tape</tspan></text>
    <text
       xml:space="preserve"
       style="font-style:normal;font-weight:normal;font-size:40px;line-height:125%;font-family:Sans;letter-spacing:0px;word-spacing:0px;fill:#00ff00;fill-opacity:1;stroke:none;stroke-width:2.07100025;stroke-linecap:butt;stroke-linejoin:miter;stroke-opacity:1;stroke-miterlimit:4;stroke-dasharray:none"
       x="-1497.4436"
       y="-126.56686"
       id="text4221-1-9-27"
       sodipodi:linespacing="125%"
       transform="scale(-1,-1)"><tspan
         sodipodi:role="line"
         id="tspan4223-2-4-4"
         x="-1497.4436"
         y="-126.56686">tape</tspan></text>
    <text
       xml:space="preserve"
       style="font-style:normal;font-weight:normal;font-size:40px;line-height:125%;font-family:Sans;letter-spacing:0px;word-spacing:0px;fill:#00ff00;fill-opacity:1;stroke:none;stroke-width:2.07100025;stroke-linecap:butt;stroke-linejoin:miter;stroke-opacity:1;stroke-miterlimit:4;stroke-dasharray:none"
       x="-1238.8722"
       y="-125.13834"
       id="text4221-1-9-2-6"
       sodipodi:linespacing="125%"
       transform="scale(-1,-1)"><tspan
         sodipodi:role="line"
         id="tspan4223-2-4-8-8"
         x="-1238.8722"
         y="-125.13834">tape</tspan></text>
    <text
       xml:space="preserve"
       style="font-style:normal;font-weight:normal;font-size:40px;line-height:125%;font-family:Sans;letter-spacing:0px;word-spacing:0px;fill:#00ff00;fill-opacity:1;stroke:none;stroke-width:2.07100025;stroke-linecap:butt;stroke-linejoin:miter;stroke-opacity:1;stroke-miterlimit:4;stroke-dasharray:none"
       x="-948.87207"
       y="-125.13834"
       id="text4221-1-9-2-4-6"
       sodipodi:linespacing="125%"
       transform="scale(-1,-1)"><tspan
         sodipodi:role="line"
         id="tspan4223-2-4-8-2-2"
         x="-948.87207"
         y="-125.13834">tape</tspan></text>
    <text
       xml:space="preserve"
       style="font-style:normal;font-weight:normal;font-size:40px;line-height:125%;font-family:Sans;letter-spacing:0px;word-spacing:0px;fill:#00ff00;fill-opacity:1;stroke:none;stroke-width:2.07100025;stroke-linecap:butt;stroke-linejoin:miter;stroke-opacity:1;stroke-miterlimit:4;stroke-dasharray:none"
       x="-694.58643"
       y="-126.56686"
       id="text4221-1-9-2-4-8-1"
       sodipodi:linespacing="125%"
       transform="scale(-1,-1)"><tspan
         sodipodi:role="line"
         id="tspan4223-2-4-8-2-9-2"
         x="-694.58643"
         y="-126.56686">tape</tspan></text>
    <text
       xml:space="preserve"
       style="font-style:normal;font-weight:normal;font-size:40px;line-height:125%;font-family:Sans;letter-spacing:0px;word-spacing:0px;fill:#00ff00;fill-opacity:1;stroke:none;stroke-width:2.07100025;stroke-linecap:butt;stroke-linejoin:miter;stroke-opacity:1;stroke-miterlimit:4;stroke-dasharray:none"
       x="-400.30042"
       y="-129.42398"
       id="text4221-1-9-2-4-8-7-6"
       sodipodi:linespacing="125%"
       transform="scale(-1,-1)"><tspan
         sodipodi:role="line"
         id="tspan4223-2-4-8-2-9-9-2"
         x="-400.30042"
         y="-129.42398">tape</tspan></text>
    <text
       xml:space="preserve"
       style="font-style:normal;font-weight:normal;font-size:40px;line-height:125%;font-family:Sans;letter-spacing:0px;word-spacing:0px;fill:#00ff00;fill-opacity:1;stroke:none;stroke-width:2.07100025;stroke-linecap:butt;stroke-linejoin:miter;stroke-opacity:1;stroke-miterlimit:4;stroke-dasharray:none"
       x="-178.87181"
       y="-130.85257"
       id="text4221-1-9-2-4-8-7-5-4"
       sodipodi:linespacing="125%"
       transform="scale(-1,-1)"><tspan
         sodipodi:role="line"
         id="tspan4223-2-4-8-2-9-9-4-6"
         x="-178.87181"
         y="-130.85257">tape</tspan></text>
  </g>
</svg>
